#!OML:ASF I:\Actors\actors\Patient Classification 1\Patient 1\Session 1\Subject1.ASF
:FULLY-SPECIFIED
:DEGREES
1043
root -0.0141458 17.442 8.40498 7.64912 1.29696 -8.41881
lowerback -0.0261288 1.6927 6.67216
upperback -8.72462 2.71145 1.15199
thorax -8.98283 0.882905 -2.70309
lowerneck -10.3934 -6.84168 -4.42605
upperneck 19.3147 -10.7594 9.73289
head 8.49939 -4.5234 2.81862
rclavicle -6.95746e-015 -8.74653e-015
rhumerus -57.7107 -32.8785 -54.4431
rradius 18.2
rwrist 35.773
rhand 14.8267 -33.8111
rfingers 7.12502
rthumb 39.6885 300.87
lclavicle -6.95746e-015 -8.74653e-015
lhumerus -56.9875 36.6332 49.7097
lradius 15.0443
lwrist -43.3483
lhand -19.9929 -10.8877
lfingers 7.12502
lthumb 6.34665 18.9973
rfemur -4.19789 22.5874 24.3225
rtibia 6.3083
rfoot -13.6486 -23.4343
rtoes 2.76264
lfemur 4.47917 -35.5355 -11.2169
ltibia -2.0355
lfoot -14.2093 42.7868
ltoes -1.81929
1044
root -0.0155881 17.443 8.40099 7.71834 1.30164 -8.41827
lowerback -0.0164319 1.6923 6.71031
upperback -8.74067 2.71313 1.13233
thorax -9.00451 0.878825 -2.74581
lowerneck -10.4069 -6.85507 -4.5004
upperneck 19.2771 -10.7841 9.8409
head 8.50191 -4.53095 2.86332
rclavicle -2.49475e-014 -4.37326e-015
rhumerus -57.5177 -32.8561 -54.7823
rradius 18.4194
rwrist 35.11
rhand 14.9034 -33.814
rfingers 7.12502
rthumb 39.7607 300.888
lclavicle -2.49475e-014 -4.37326e-015
lhumerus -56.3582 36.0371 50.63
lradius 15.1212
lwrist -42.7931
lhand -19.8533 -10.8539
lfingers 7.12502
lthumb 6.48145 19.027
rfemur -4.24801 22.671 24.2959
rtibia 6.22394
rfoot -13.6005 -23.5118
rtoes 2.80831
lfemur 4.46859 -35.7709 -11.2153
ltibia -2.09369
lfoot -14.398 42.9903
ltoes -1.4799
1045
root -0.0175066 17.4431 8.39788 7.76839 1.26864 -8.42343
lowerback -0.0232869 1.71204 6.76018
upperback -8.73049 2.73892 1.10523
thorax -8.98401 0.887363 -2.80358
lowerneck -10.4234 -6.8863 -4.57552
upperneck 19.2339 -10.8346 9.95576
head 8.50581 -4.55008 2.90717
rclavicle -1.72943e-014 -3.97569e-016
rhumerus -57.4422 -32.994 -54.9114
rradius 18.6203
rwrist 34.7112
rhand 14.9032 -33.7595
rfingers 7.12502
rthumb 39.7605 300.943
lclavicle -1.72943e-014 -3.97569e-016
lhumerus -55.6839 35.4212 51.5377
lradius 15.1649
lwrist -42.2059
lhand -19.7375 -10.7976
lfingers 7.12502
lthumb 6.59327 19.0797
rfemur -4.281 22.7783 24.2878
rtibia 6.17374
rfoot -13.6005 -23.5672
rtoes 2.92929
lfemur 4.49777 -35.9119 -11.2122
ltibia -2.20573
lfoot -14.356 43.1935
ltoes -1.60109
1046
root -0.018998 17.443 8.39498 7.80901 1.21075 -8.39964
lowerback -0.040567 1.73055 6.78468
upperback -8.70594 2.7595 1.07235
thorax -8.94201 0.896059 -2.85243
lowerneck -10.447 -6.92149 -4.62124
upperneck 19.2299 -10.8824 9.98995
head 8.51743 -4.57199 2.91938
rclavicle -1.65985e-014 -9.14409e-015
rhumerus -57.3697 -33.1759 -54.9606
rradius 18.7468
rwrist 34.4361
rhand 14.8691 -33.5829
rfingers 7.12502
rthumb 39.7284 301.11
lclavicle -1.65985e-014 -9.14409e-015
lhumerus -55.1265 34.9399 52.251
lradius 15.2224
lwrist -41.8171
lhand -19.6519 -10.8511
lfingers 7.12502
lthumb 6.6759 19.0237
rfemur -4.29489 22.8553 24.2514
rtibia 6.10963
rfoot -13.566 -23.6013
rtoes 2.85337
lfemur 4.57808 -36.1243 -11.277
ltibia -2.35592
lfoot -14.3013 43.4757
ltoes -1.72619
1047
root -0.0196121 17.4436 8.39098 7.86905 1.15205 -8.37237
lowerback -0.0427919 1.73775 6.81777
upperback -8.69584 2.7668 1.03117
thorax -8.92579 0.895952 -2.91473
lowerneck -10.5031 -6.94628 -4.60187
upperneck 19.265 -10.9161 9.95558
head 8.53921 -4.58675 2.89874
rclavicle -1.10325e-014 -3.10104e-014
rhumerus -57.1775 -33.2691 -55.1345
rradius 18.769
rwrist 34.1579
rhand 14.8586 -33.4649
rfingers 7.12502
rthumb 39.7186 301.225
lclavicle -1.10325e-014 -3.10104e-014
lhumerus -54.7247 34.5922 52.7392
lradius 15.3171
lwrist -41.655
lhand -19.5435 -10.9439
lfingers 7.12502
lthumb 6.7805 18.9275
rfemur -4.33645 22.8929 24.1891
rtibia 6.0194
rfoot -13.5024 -23.6096
rtoes 2.70244
lfemur 4.59812 -36.3066 -11.3141
ltibia -2.45828
lfoot -14.3962 43.6948
ltoes -1.50383
